<?xml version="1.0" encoding="UTF-8"?>
<svg width="32px" height="32px" viewBox="0 0 32 32" version="1.1" xmlns="http://www.w3.org/2000/svg">
    <title>Brain Icon</title>
    <g stroke="none" stroke-width="1" fill="none" fill-rule="evenodd">
        <path d="M26,16 C26,11.582 22.418,8 18,8 C17.2,8 16.4,8.1 15.7,8.3 C14.6,5.7 12,4 9,4 C5.134,4 2,7.134 2,11 C2,11.3 2.1,11.7 2.1,12 C2.1,12.3 2,12.7 2,13 C2,16.866 5.134,20 9,20 C9.3,20 9.7,19.9 10,19.9 C10.3,19.9 10.7,20 11,20 C14.866,20 18,16.866 18,13 C18,12.7 17.9,12.3 17.9,12 C17.9,11.7 18,11.3 18,11 C18,9.9 18.9,9 20,9 C22.209,9 24,10.791 24,13 C24,14.5 23.2,15.9 22,16.6 C21.4,16.9 21,17.4 21,18.1 C21,19.2 21.9,20.1 23,20.1 C23.2,20.1 23.4,20 23.6,20 C24.9,19.6 26,18.9 26.9,17.9 C27.6,17.1 28,16.1 28,15 C28,14.7 27.9,14.3 27.9,14 C27.9,13.7 28,13.3 28,13 C28,12.4 27.8,11.9 27.6,11.4 C26.9,10 25.6,9 24,9" fill="#6366F1" fill-rule="nonzero"></path>
        <path d="M16,28 C20.418,28 24,24.418 24,20 C24,19.2 23.9,18.4 23.7,17.7 C24.4,17.3 25,16.7 25.4,16 C25.8,17.3 26,18.6 26,20 C26,25.522 21.522,30 16,30 C10.478,30 6,25.522 6,20 C6,18.6 6.2,17.3 6.6,16 C7,16.7 7.6,17.3 8.3,17.7 C8.1,18.4 8,19.2 8,20 C8,24.418 11.582,28 16,28 Z" fill="#6366F1" fill-rule="nonzero"></path>
    </g>
</svg> 